<svg width="25" height="19" viewBox="0 0 25 19" fill="none" xmlns="http://www.w3.org/2000/svg">
<path d="M2.34375 0.125C1.0498 0.125 0 1.1748 0 2.46875C0 3.20605 0.34668 3.89941 0.9375 4.34375L11.5625 12.3125C12.1191 12.7275 12.8809 12.7275 13.4375 12.3125L24.0625 4.34375C24.6533 3.89941 25 3.20605 25 2.46875C25 1.1748 23.9502 0.125 22.6562 0.125H2.34375ZM0 5.59375V15.75C0 17.4736 1.40137 18.875 3.125 18.875H21.875C23.5986 18.875 25 17.4736 25 15.75V5.59375L14.375 13.5625C13.2617 14.3975 11.7383 14.3975 10.625 13.5625L0 5.59375Z" fill="#34C76F"/>
</svg>
