<svg width="264" height="298" viewBox="0 0 264 298" fill="none" xmlns="http://www.w3.org/2000/svg">
<path d="M10 40C10 42.7614 7.76142 45 5 45C2.23858 45 0 42.7614 0 40C0 37.2386 2.23858 35 5 35C7.76142 35 10 37.2386 10 40Z" fill="#7DFEB0" fill-opacity="0.6"/>
<path d="M27 40C27 42.7614 24.7614 45 22 45C19.2386 45 17 42.7614 17 40C17 37.2386 19.2386 35 22 35C24.7614 35 27 37.2386 27 40Z" fill="#7DFEB0" fill-opacity="0.6"/>
<path d="M10 74C10 76.7614 7.76142 79 5 79C2.23858 79 0 76.7614 0 74C0 71.2386 2.23858 69 5 69C7.76142 69 10 71.2386 10 74Z" fill="#7DFEB0" fill-opacity="0.6"/>
<path d="M44 40C44 42.7614 41.7614 45 39 45C36.2386 45 34 42.7614 34 40C34 37.2386 36.2386 35 39 35C41.7614 35 44 37.2386 44 40Z" fill="#7DFEB0" fill-opacity="0.6"/>
<path d="M44 175C44 177.761 41.7614 180 39 180C36.2386 180 34 177.761 34 175C34 172.239 36.2386 170 39 170C41.7614 170 44 172.239 44 175Z" fill="#7DFEB0" fill-opacity="0.6"/>
<path d="M10 108C10 110.761 7.76142 113 5 113C2.23858 113 0 110.761 0 108C0 105.239 2.23858 103 5 103C7.76142 103 10 105.239 10 108Z" fill="#7DFEB0" fill-opacity="0.6"/>
<path d="M10 243C10 245.761 7.76142 248 5 248C2.23858 248 0 245.761 0 243C0 240.239 2.23858 238 5 238C7.76142 238 10 240.239 10 243Z" fill="#7DFEB0" fill-opacity="0.6"/>
<path d="M10 142C10 144.761 7.76142 147 5 147C2.23858 147 0 144.761 0 142C0 139.239 2.23858 137 5 137C7.76142 137 10 139.239 10 142Z" fill="#7DFEB0" fill-opacity="0.6"/>
<path d="M10 276C10 278.761 7.76142 281 5 281C2.23858 281 0 278.761 0 276C0 273.239 2.23858 271 5 271C7.76142 271 10 273.239 10 276Z" fill="#7DFEB0" fill-opacity="0.6"/>
<path d="M27 74C27 76.7614 24.7614 79 22 79C19.2386 79 17 76.7614 17 74C17 71.2386 19.2386 69 22 69C24.7614 69 27 71.2386 27 74Z" fill="#7DFEB0" fill-opacity="0.6"/>
<path d="M27 209C27 211.761 24.7614 214 22 214C19.2386 214 17 211.761 17 209C17 206.239 19.2386 204 22 204C24.7614 204 27 206.239 27 209Z" fill="#7DFEB0" fill-opacity="0.6"/>
<path d="M61 40C61 42.7614 58.7614 45 56 45C53.2386 45 51 42.7614 51 40C51 37.2386 53.2386 35 56 35C58.7614 35 61 37.2386 61 40Z" fill="#7DFEB0" fill-opacity="0.6"/>
<path d="M44 209C44 211.761 41.7614 214 39 214C36.2386 214 34 211.761 34 209C34 206.239 36.2386 204 39 204C41.7614 204 44 206.239 44 209Z" fill="#7DFEB0" fill-opacity="0.6"/>
<path d="M27 108C27 110.761 24.7614 113 22 113C19.2386 113 17 110.761 17 108C17 105.239 19.2386 103 22 103C24.7614 103 27 105.239 27 108Z" fill="#7DFEB0" fill-opacity="0.6"/>
<path d="M27 243C27 245.761 24.7614 248 22 248C19.2386 248 17 245.761 17 243C17 240.239 19.2386 238 22 238C24.7614 238 27 240.239 27 243Z" fill="#7DFEB0" fill-opacity="0.6"/>
<path d="M27 142C27 144.761 24.7614 147 22 147C19.2386 147 17 144.761 17 142C17 139.239 19.2386 137 22 137C24.7614 137 27 139.239 27 142Z" fill="#7DFEB0" fill-opacity="0.6"/>
<path d="M27 276C27 278.761 24.7614 281 22 281C19.2386 281 17 278.761 17 276C17 273.239 19.2386 271 22 271C24.7614 271 27 273.239 27 276Z" fill="#7DFEB0" fill-opacity="0.6"/>
<path d="M10 57C10 59.7614 7.76142 62 5 62C2.23858 62 0 59.7614 0 57C0 54.2386 2.23858 52 5 52C7.76142 52 10 54.2386 10 57Z" fill="#7DFEB0" fill-opacity="0.6"/>
<path d="M27 57C27 59.7614 24.7614 62 22 62C19.2386 62 17 59.7614 17 57C17 54.2386 19.2386 52 22 52C24.7614 52 27 54.2386 27 57Z" fill="#7DFEB0" fill-opacity="0.6"/>
<path d="M10 91C10 93.7614 7.76142 96 5 96C2.23858 96 0 93.7614 0 91C0 88.2386 2.23858 86 5 86C7.76142 86 10 88.2386 10 91Z" fill="#7DFEB0" fill-opacity="0.6"/>
<path d="M10 226C10 228.761 7.76142 231 5 231C2.23858 231 0 228.761 0 226C0 223.239 2.23858 221 5 221C7.76142 221 10 223.239 10 226Z" fill="#7DFEB0" fill-opacity="0.6"/>
<path d="M44 57C44 59.7614 41.7614 62 39 62C36.2386 62 34 59.7614 34 57C34 54.2386 36.2386 52 39 52C41.7614 52 44 54.2386 44 57Z" fill="#7DFEB0" fill-opacity="0.6"/>
<path d="M44 192C44 194.761 41.7614 197 39 197C36.2386 197 34 194.761 34 192C34 189.239 36.2386 187 39 187C41.7614 187 44 189.239 44 192Z" fill="#7DFEB0" fill-opacity="0.6"/>
<path d="M10 125C10 127.761 7.76142 130 5 130C2.23858 130 0 127.761 0 125C0 122.239 2.23858 120 5 120C7.76142 120 10 122.239 10 125Z" fill="#7DFEB0" fill-opacity="0.6"/>
<path d="M10 260C10 262.761 7.76142 265 5 265C2.23858 265 0 262.761 0 260C0 257.239 2.23858 255 5 255C7.76142 255 10 257.239 10 260Z" fill="#7DFEB0" fill-opacity="0.6"/>
<path d="M10 159C10 161.761 7.76142 164 5 164C2.23858 164 0 161.761 0 159C0 156.239 2.23858 154 5 154C7.76142 154 10 156.239 10 159Z" fill="#7DFEB0" fill-opacity="0.6"/>
<path d="M10 293C10 295.761 7.76142 298 5 298C2.23858 298 0 295.761 0 293C0 290.239 2.23858 288 5 288C7.76142 288 10 290.239 10 293Z" fill="#7DFEB0" fill-opacity="0.6"/>
<path d="M27 91C27 93.7614 24.7614 96 22 96C19.2386 96 17 93.7614 17 91C17 88.2386 19.2386 86 22 86C24.7614 86 27 88.2386 27 91Z" fill="#7DFEB0" fill-opacity="0.6"/>
<path d="M27 226C27 228.761 24.7614 231 22 231C19.2386 231 17 228.761 17 226C17 223.239 19.2386 221 22 221C24.7614 221 27 223.239 27 226Z" fill="#7DFEB0" fill-opacity="0.6"/>
<path d="M61 57C61 59.7614 58.7614 62 56 62C53.2386 62 51 59.7614 51 57C51 54.2386 53.2386 52 56 52C58.7614 52 61 54.2386 61 57Z" fill="#7DFEB0" fill-opacity="0.6"/>
<path d="M44 226C44 228.761 41.7614 231 39 231C36.2386 231 34 228.761 34 226C34 223.239 36.2386 221 39 221C41.7614 221 44 223.239 44 226Z" fill="#7DFEB0" fill-opacity="0.6"/>
<path d="M27 125C27 127.761 24.7614 130 22 130C19.2386 130 17 127.761 17 125C17 122.239 19.2386 120 22 120C24.7614 120 27 122.239 27 125Z" fill="#7DFEB0" fill-opacity="0.6"/>
<path d="M27 260C27 262.761 24.7614 265 22 265C19.2386 265 17 262.761 17 260C17 257.239 19.2386 255 22 255C24.7614 255 27 257.239 27 260Z" fill="#7DFEB0" fill-opacity="0.6"/>
<path d="M27 159C27 161.761 24.7614 164 22 164C19.2386 164 17 161.761 17 159C17 156.239 19.2386 154 22 154C24.7614 154 27 156.239 27 159Z" fill="#7DFEB0" fill-opacity="0.6"/>
<path d="M258 10C255.239 10 253 7.76142 253 5C253 2.23858 255.239 0 258 0C260.761 0 263 2.23858 263 5C263 7.76142 260.761 10 258 10Z" fill="#7DFEB0" fill-opacity="0.6"/>
<path d="M123 10C120.239 10 118 7.76142 118 5C118 2.23858 120.239 0 123 0C125.761 0 128 2.23858 128 5C128 7.76142 125.761 10 123 10Z" fill="#7DFEB0" fill-opacity="0.6"/>
<path d="M258 27C255.239 27 253 24.7614 253 22C253 19.2386 255.239 17 258 17C260.761 17 263 19.2386 263 22C263 24.7614 260.761 27 258 27Z" fill="#7DFEB0" fill-opacity="0.6"/>
<path d="M123 27C120.239 27 118 24.7614 118 22C118 19.2386 120.239 17 123 17C125.761 17 128 19.2386 128 22C128 24.7614 125.761 27 123 27Z" fill="#7DFEB0" fill-opacity="0.6"/>
<path d="M224 10C221.239 10 219 7.76142 219 5C219 2.23858 221.239 0 224 0C226.761 0 229 2.23858 229 5C229 7.76142 226.761 10 224 10Z" fill="#7DFEB0" fill-opacity="0.6"/>
<path d="M258 44C255.239 44 253 41.7614 253 39C253 36.2386 255.239 34 258 34C260.761 34 263 36.2386 263 39C263 41.7614 260.761 44 258 44Z" fill="#7DFEB0" fill-opacity="0.6"/>
<path d="M123 44C120.239 44 118 41.7614 118 39C118 36.2386 120.239 34 123 34C125.761 34 128 36.2386 128 39C128 41.7614 125.761 44 123 44Z" fill="#7DFEB0" fill-opacity="0.6"/>
<path d="M190 10C187.239 10 185 7.76142 185 5C185 2.23858 187.239 0 190 0C192.761 0 195 2.23858 195 5C195 7.76142 192.761 10 190 10Z" fill="#7DFEB0" fill-opacity="0.6"/>
<path d="M55 10C52.2386 10 50 7.76142 50 5C50 2.23858 52.2386 0 55 0C57.7614 0 60 2.23858 60 5C60 7.76142 57.7614 10 55 10Z" fill="#7DFEB0" fill-opacity="0.6"/>
<path d="M156 10C153.239 10 151 7.76142 151 5C151 2.23858 153.239 0 156 0C158.761 0 161 2.23858 161 5C161 7.76142 158.761 10 156 10Z" fill="#7DFEB0" fill-opacity="0.6"/>
<path d="M22 10C19.2386 10 17 7.76142 17 5C17 2.23858 19.2386 0 22 0C24.7614 0 27 2.23858 27 5C27 7.76142 24.7614 10 22 10Z" fill="#7DFEB0" fill-opacity="0.6"/>
<path d="M224 27C221.239 27 219 24.7614 219 22C219 19.2386 221.239 17 224 17C226.761 17 229 19.2386 229 22C229 24.7614 226.761 27 224 27Z" fill="#7DFEB0" fill-opacity="0.6"/>
<path d="M89 27C86.2386 27 84 24.7614 84 22C84 19.2386 86.2386 17 89 17C91.7614 17 94 19.2386 94 22C94 24.7614 91.7614 27 89 27Z" fill="#7DFEB0" fill-opacity="0.6"/>
<path d="M258 61C255.239 61 253 58.7614 253 56C253 53.2386 255.239 51 258 51C260.761 51 263 53.2386 263 56C263 58.7614 260.761 61 258 61Z" fill="#7DFEB0" fill-opacity="0.6"/>
<path d="M89 44C86.2386 44 84 41.7614 84 39C84 36.2386 86.2386 34 89 34C91.7614 34 94 36.2386 94 39C94 41.7614 91.7614 44 89 44Z" fill="#7DFEB0" fill-opacity="0.6"/>
<path d="M190 27C187.239 27 185 24.7614 185 22C185 19.2386 187.239 17 190 17C192.761 17 195 19.2386 195 22C195 24.7614 192.761 27 190 27Z" fill="#7DFEB0" fill-opacity="0.6"/>
<path d="M55 27C52.2386 27 50 24.7614 50 22C50 19.2386 52.2386 17 55 17C57.7614 17 60 19.2386 60 22C60 24.7614 57.7614 27 55 27Z" fill="#7DFEB0" fill-opacity="0.6"/>
<path d="M156 27C153.239 27 151 24.7614 151 22C151 19.2386 153.239 17 156 17C158.761 17 161 19.2386 161 22C161 24.7614 158.761 27 156 27Z" fill="#7DFEB0" fill-opacity="0.6"/>
<path d="M22 27C19.2386 27 17 24.7614 17 22C17 19.2386 19.2386 17 22 17C24.7614 17 27 19.2386 27 22C27 24.7614 24.7614 27 22 27Z" fill="#7DFEB0" fill-opacity="0.6"/>
<path d="M241 10C238.239 10 236 7.76142 236 5C236 2.23858 238.239 0 241 0C243.761 0 246 2.23858 246 5C246 7.76142 243.761 10 241 10Z" fill="#7DFEB0" fill-opacity="0.6"/>
<path d="M241 27C238.239 27 236 24.7614 236 22C236 19.2386 238.239 17 241 17C243.761 17 246 19.2386 246 22C246 24.7614 243.761 27 241 27Z" fill="#7DFEB0" fill-opacity="0.6"/>
<path d="M106 27C103.239 27 101 24.7614 101 22C101 19.2386 103.239 17 106 17C108.761 17 111 19.2386 111 22C111 24.7614 108.761 27 106 27Z" fill="#7DFEB0" fill-opacity="0.6"/>
<path d="M207 10C204.239 10 202 7.76142 202 5C202 2.23858 204.239 0 207 0C209.761 0 212 2.23858 212 5C212 7.76142 209.761 10 207 10Z" fill="#7DFEB0" fill-opacity="0.6"/>
<path d="M241 44C238.239 44 236 41.7614 236 39C236 36.2386 238.239 34 241 34C243.761 34 246 36.2386 246 39C246 41.7614 243.761 44 241 44Z" fill="#7DFEB0" fill-opacity="0.6"/>
<path d="M106 44C103.239 44 101 41.7614 101 39C101 36.2386 103.239 34 106 34C108.761 34 111 36.2386 111 39C111 41.7614 108.761 44 106 44Z" fill="#7DFEB0" fill-opacity="0.6"/>
<path d="M173 10C170.239 10 168 7.76142 168 5C168 2.23858 170.239 0 173 0C175.761 0 178 2.23858 178 5C178 7.76142 175.761 10 173 10Z" fill="#7DFEB0" fill-opacity="0.6"/>
<path d="M38 10C35.2386 10 33 7.76142 33 5C33 2.23858 35.2386 0 38 0C40.7614 0 43 2.23858 43 5C43 7.76142 40.7614 10 38 10Z" fill="#7DFEB0" fill-opacity="0.6"/>
<path d="M139 10C136.239 10 134 7.76142 134 5C134 2.23858 136.239 0 139 0C141.761 0 144 2.23858 144 5C144 7.76142 141.761 10 139 10Z" fill="#7DFEB0" fill-opacity="0.6"/>
<path d="M5 10C2.23858 10 0 7.76142 0 5C0 2.23858 2.23858 0 5 0C7.76142 0 10 2.23858 10 5C10 7.76142 7.76142 10 5 10Z" fill="#7DFEB0" fill-opacity="0.6"/>
<path d="M207 27C204.239 27 202 24.7614 202 22C202 19.2386 204.239 17 207 17C209.761 17 212 19.2386 212 22C212 24.7614 209.761 27 207 27Z" fill="#7DFEB0" fill-opacity="0.6"/>
<path d="M72 27C69.2386 27 67 24.7614 67 22C67 19.2386 69.2386 17 72 17C74.7614 17 77 19.2386 77 22C77 24.7614 74.7614 27 72 27Z" fill="#7DFEB0" fill-opacity="0.6"/>
<path d="M241 61C238.239 61 236 58.7614 236 56C236 53.2386 238.239 51 241 51C243.761 51 246 53.2386 246 56C246 58.7614 243.761 61 241 61Z" fill="#7DFEB0" fill-opacity="0.6"/>
<path d="M72 44C69.2386 44 67 41.7614 67 39C67 36.2386 69.2386 34 72 34C74.7614 34 77 36.2386 77 39C77 41.7614 74.7614 44 72 44Z" fill="#7DFEB0" fill-opacity="0.6"/>
<path d="M173 27C170.239 27 168 24.7614 168 22C168 19.2386 170.239 17 173 17C175.761 17 178 19.2386 178 22C178 24.7614 175.761 27 173 27Z" fill="#7DFEB0" fill-opacity="0.6"/>
<path d="M38 27C35.2386 27 33 24.7614 33 22C33 19.2386 35.2386 17 38 17C40.7614 17 43 19.2386 43 22C43 24.7614 40.7614 27 38 27Z" fill="#7DFEB0" fill-opacity="0.6"/>
<path d="M139 27C136.239 27 134 24.7614 134 22C134 19.2386 136.239 17 139 17C141.761 17 144 19.2386 144 22C144 24.7614 141.761 27 139 27Z" fill="#7DFEB0" fill-opacity="0.6"/>
<path d="M39 154C41.7614 154 44 156.239 44 159C44 161.761 41.7614 164 39 164C36.2386 164 34 161.761 34 159C34 156.239 36.2386 154 39 154Z" fill="#7DFEB0" fill-opacity="0.6"/>
<path d="M174 154C176.761 154 179 156.239 179 159C179 161.761 176.761 164 174 164C171.239 164 169 161.761 169 159C169 156.239 171.239 154 174 154Z" fill="#7DFEB0" fill-opacity="0.6"/>
<path d="M39 137C41.7614 137 44 139.239 44 142C44 144.761 41.7614 147 39 147C36.2386 147 34 144.761 34 142C34 139.239 36.2386 137 39 137Z" fill="#7DFEB0" fill-opacity="0.6"/>
<path d="M174 137C176.761 137 179 139.239 179 142C179 144.761 176.761 147 174 147C171.239 147 169 144.761 169 142C169 139.239 171.239 137 174 137Z" fill="#7DFEB0" fill-opacity="0.6"/>
<path d="M73 154C75.7614 154 78 156.239 78 159C78 161.761 75.7614 164 73 164C70.2386 164 68 161.761 68 159C68 156.239 70.2386 154 73 154Z" fill="#7DFEB0" fill-opacity="0.6"/>
<path d="M208 154C210.761 154 213 156.239 213 159C213 161.761 210.761 164 208 164C205.239 164 203 161.761 203 159C203 156.239 205.239 154 208 154Z" fill="#7DFEB0" fill-opacity="0.6"/>
<path d="M39 120C41.7614 120 44 122.239 44 125C44 127.761 41.7614 130 39 130C36.2386 130 34 127.761 34 125C34 122.239 36.2386 120 39 120Z" fill="#7DFEB0" fill-opacity="0.6"/>
<path d="M174 120C176.761 120 179 122.239 179 125C179 127.761 176.761 130 174 130C171.239 130 169 127.761 169 125C169 122.239 171.239 120 174 120Z" fill="#7DFEB0" fill-opacity="0.6"/>
<path d="M107 154C109.761 154 112 156.239 112 159C112 161.761 109.761 164 107 164C104.239 164 102 161.761 102 159C102 156.239 104.239 154 107 154Z" fill="#7DFEB0" fill-opacity="0.6"/>
<path d="M242 154C244.761 154 247 156.239 247 159C247 161.761 244.761 164 242 164C239.239 164 237 161.761 237 159C237 156.239 239.239 154 242 154Z" fill="#7DFEB0" fill-opacity="0.6"/>
<path d="M141 154C143.761 154 146 156.239 146 159C146 161.761 143.761 164 141 164C138.239 164 136 161.761 136 159C136 156.239 138.239 154 141 154Z" fill="#7DFEB0" fill-opacity="0.6"/>
<path d="M73 137C75.7614 137 78 139.239 78 142C78 144.761 75.7614 147 73 147C70.2386 147 68 144.761 68 142C68 139.239 70.2386 137 73 137Z" fill="#7DFEB0" fill-opacity="0.6"/>
<path d="M208 137C210.761 137 213 139.239 213 142C213 144.761 210.761 147 208 147C205.239 147 203 144.761 203 142C203 139.239 205.239 137 208 137Z" fill="#7DFEB0" fill-opacity="0.6"/>
<path d="M39 103C41.7614 103 44 105.239 44 108C44 110.761 41.7614 113 39 113C36.2386 113 34 110.761 34 108C34 105.239 36.2386 103 39 103Z" fill="#7DFEB0" fill-opacity="0.6"/>
<path d="M208 120C210.761 120 213 122.239 213 125C213 127.761 210.761 130 208 130C205.239 130 203 127.761 203 125C203 122.239 205.239 120 208 120Z" fill="#7DFEB0" fill-opacity="0.6"/>
<path d="M107 137C109.761 137 112 139.239 112 142C112 144.761 109.761 147 107 147C104.239 147 102 144.761 102 142C102 139.239 104.239 137 107 137Z" fill="#7DFEB0" fill-opacity="0.6"/>
<path d="M242 137C244.761 137 247 139.239 247 142C247 144.761 244.761 147 242 147C239.239 147 237 144.761 237 142C237 139.239 239.239 137 242 137Z" fill="#7DFEB0" fill-opacity="0.6"/>
<path d="M141 137C143.761 137 146 139.239 146 142C146 144.761 143.761 147 141 147C138.239 147 136 144.761 136 142C136 139.239 138.239 137 141 137Z" fill="#7DFEB0" fill-opacity="0.6"/>
<path d="M56 154C58.7614 154 61 156.239 61 159C61 161.761 58.7614 164 56 164C53.2386 164 51 161.761 51 159C51 156.239 53.2386 154 56 154Z" fill="#7DFEB0" fill-opacity="0.6"/>
<path d="M191 154C193.761 154 196 156.239 196 159C196 161.761 193.761 164 191 164C188.239 164 186 161.761 186 159C186 156.239 188.239 154 191 154Z" fill="#7DFEB0" fill-opacity="0.6"/>
<path d="M56 137C58.7614 137 61 139.239 61 142C61 144.761 58.7614 147 56 147C53.2386 147 51 144.761 51 142C51 139.239 53.2386 137 56 137Z" fill="#7DFEB0" fill-opacity="0.6"/>
<path d="M191 137C193.761 137 196 139.239 196 142C196 144.761 193.761 147 191 147C188.239 147 186 144.761 186 142C186 139.239 188.239 137 191 137Z" fill="#7DFEB0" fill-opacity="0.6"/>
<path d="M90 154C92.7614 154 95 156.239 95 159C95 161.761 92.7614 164 90 164C87.2386 164 85 161.761 85 159C85 156.239 87.2386 154 90 154Z" fill="#7DFEB0" fill-opacity="0.6"/>
<path d="M225 154C227.761 154 230 156.239 230 159C230 161.761 227.761 164 225 164C222.239 164 220 161.761 220 159C220 156.239 222.239 154 225 154Z" fill="#7DFEB0" fill-opacity="0.6"/>
<path d="M56 120C58.7614 120 61 122.239 61 125C61 127.761 58.7614 130 56 130C53.2386 130 51 127.761 51 125C51 122.239 53.2386 120 56 120Z" fill="#7DFEB0" fill-opacity="0.6"/>
<path d="M191 120C193.761 120 196 122.239 196 125C196 127.761 193.761 130 191 130C188.239 130 186 127.761 186 125C186 122.239 188.239 120 191 120Z" fill="#7DFEB0" fill-opacity="0.6"/>
<path d="M124 154C126.761 154 129 156.239 129 159C129 161.761 126.761 164 124 164C121.239 164 119 161.761 119 159C119 156.239 121.239 154 124 154Z" fill="#7DFEB0" fill-opacity="0.6"/>
<path d="M259 154C261.761 154 264 156.239 264 159C264 161.761 261.761 164 259 164C256.239 164 254 161.761 254 159C254 156.239 256.239 154 259 154Z" fill="#7DFEB0" fill-opacity="0.6"/>
<path d="M158 154C160.761 154 163 156.239 163 159C163 161.761 160.761 164 158 164C155.239 164 153 161.761 153 159C153 156.239 155.239 154 158 154Z" fill="#7DFEB0" fill-opacity="0.6"/>
<path d="M90 137C92.7614 137 95 139.239 95 142C95 144.761 92.7614 147 90 147C87.2386 147 85 144.761 85 142C85 139.239 87.2386 137 90 137Z" fill="#7DFEB0" fill-opacity="0.6"/>
<path d="M225 137C227.761 137 230 139.239 230 142C230 144.761 227.761 147 225 147C222.239 147 220 144.761 220 142C220 139.239 222.239 137 225 137Z" fill="#7DFEB0" fill-opacity="0.6"/>
<path d="M56 103C58.7614 103 61 105.239 61 108C61 110.761 58.7614 113 56 113C53.2386 113 51 110.761 51 108C51 105.239 53.2386 103 56 103Z" fill="#7DFEB0" fill-opacity="0.6"/>
<path d="M225 120C227.761 120 230 122.239 230 125C230 127.761 227.761 130 225 130C222.239 130 220 127.761 220 125C220 122.239 222.239 120 225 120Z" fill="#7DFEB0" fill-opacity="0.6"/>
<path d="M124 137C126.761 137 129 139.239 129 142C129 144.761 126.761 147 124 147C121.239 147 119 144.761 119 142C119 139.239 121.239 137 124 137Z" fill="#7DFEB0" fill-opacity="0.6"/>
<path d="M259 137C261.761 137 264 139.239 264 142C264 144.761 261.761 147 259 147C256.239 147 254 144.761 254 142C254 139.239 256.239 137 259 137Z" fill="#7DFEB0" fill-opacity="0.6"/>
<path d="M158 137C160.761 137 163 139.239 163 142C163 144.761 160.761 147 158 147C155.239 147 153 144.761 153 142C153 139.239 155.239 137 158 137Z" fill="#7DFEB0" fill-opacity="0.6"/>
<path d="M56 187C58.7614 187 61 189.239 61 192C61 194.761 58.7614 197 56 197C53.2386 197 51 194.761 51 192C51 189.239 53.2386 187 56 187Z" fill="#7DFEB0" fill-opacity="0.6"/>
<path d="M56 170C58.7614 170 61 172.239 61 175C61 177.761 58.7614 180 56 180C53.2386 180 51 177.761 51 175C51 172.239 53.2386 170 56 170Z" fill="#7DFEB0" fill-opacity="0.6"/>
<path d="M73 187C75.7614 187 78 189.239 78 192C78 194.761 75.7614 197 73 197C70.2386 197 68 194.761 68 192C68 189.239 70.2386 187 73 187Z" fill="#7DFEB0" fill-opacity="0.6"/>
<path d="M207 288C209.761 288 212 290.239 212 293C212 295.761 209.761 298 207 298C204.239 298 202 295.761 202 293C202 290.239 204.239 288 207 288Z" fill="#7DFEB0" fill-opacity="0.6"/>
<path d="M207 271C209.761 271 212 273.239 212 276C212 278.761 209.761 281 207 281C204.239 281 202 278.761 202 276C202 273.239 204.239 271 207 271Z" fill="#7DFEB0" fill-opacity="0.6"/>
<path d="M241 288C243.761 288 246 290.239 246 293C246 295.761 243.761 298 241 298C238.239 298 236 295.761 236 293C236 290.239 238.239 288 241 288Z" fill="#7DFEB0" fill-opacity="0.6"/>
<path d="M207 254C209.761 254 212 256.239 212 259C212 261.761 209.761 264 207 264C204.239 264 202 261.761 202 259C202 256.239 204.239 254 207 254Z" fill="#7DFEB0" fill-opacity="0.6"/>
<path d="M241 271C243.761 271 246 273.239 246 276C246 278.761 243.761 281 241 281C238.239 281 236 278.761 236 276C236 273.239 238.239 271 241 271Z" fill="#7DFEB0" fill-opacity="0.6"/>
<path d="M241 254C243.761 254 246 256.239 246 259C246 261.761 243.761 264 241 264C238.239 264 236 261.761 236 259C236 256.239 238.239 254 241 254Z" fill="#7DFEB0" fill-opacity="0.6"/>
<path d="M224 288C226.761 288 229 290.239 229 293C229 295.761 226.761 298 224 298C221.239 298 219 295.761 219 293C219 290.239 221.239 288 224 288Z" fill="#7DFEB0" fill-opacity="0.6"/>
<path d="M224 271C226.761 271 229 273.239 229 276C229 278.761 226.761 281 224 281C221.239 281 219 278.761 219 276C219 273.239 221.239 271 224 271Z" fill="#7DFEB0" fill-opacity="0.6"/>
<path d="M258 271C260.761 271 263 273.239 263 276C263 278.761 260.761 281 258 281C255.239 281 253 278.761 253 276C253 273.239 255.239 271 258 271Z" fill="#7DFEB0" fill-opacity="0.6"/>
<path d="M258 254C260.761 254 263 256.239 263 259C263 261.761 260.761 264 258 264C255.239 264 253 261.761 253 259C253 256.239 255.239 254 258 254Z" fill="#7DFEB0" fill-opacity="0.6"/>
<path d="M191 271C193.761 271 196 273.239 196 276C196 278.761 193.761 281 191 281C188.239 281 186 278.761 186 276C186 273.239 188.239 271 191 271Z" fill="#7DFEB0" fill-opacity="0.6"/>
<path d="M123 68C125.761 68 128 70.2386 128 73C128 75.7614 125.761 78 123 78C120.239 78 118 75.7614 118 73C118 70.2386 120.239 68 123 68Z" fill="#7DFEB0" fill-opacity="0.6"/>
</svg>
