<svg width="25" height="25" viewBox="0 0 25 25" fill="none" xmlns="http://www.w3.org/2000/svg">
<g clip-path="url(#clip0_142_19)">
<path d="M8.03571 7.03125V9.375H16.9643V7.03125C16.9643 4.87305 14.9665 3.125 12.5 3.125C10.0335 3.125 8.03571 4.87305 8.03571 7.03125ZM4.46429 9.375V7.03125C4.46429 3.14941 8.06362 0 12.5 0C16.9364 0 20.5357 3.14941 20.5357 7.03125V9.375H21.4286C23.3984 9.375 25 10.7764 25 12.5V21.875C25 23.5986 23.3984 25 21.4286 25H3.57143C1.60156 25 0 23.5986 0 21.875V12.5C0 10.7764 1.60156 9.375 3.57143 9.375H4.46429Z" fill="#34C76F"/>
</g>
<defs>
<clipPath id="clip0_142_19">
<rect width="25" height="25" fill="white"/>
</clipPath>
</defs>
</svg>
