<svg width="155" height="41" viewBox="0 0 155 41" fill="none" xmlns="http://www.w3.org/2000/svg">
<path d="M23.6649 11.7651C23.6649 14.1418 21.7427 16.0686 19.3717 16.0686C17.0006 16.0686 15.0785 14.1418 15.0785 11.7651C15.0785 9.38835 17.0006 7.46163 19.3717 7.46163C21.7427 7.46163 23.6649 9.38835 23.6649 11.7651Z" fill="#946AC6"/>
<path d="M21.7801 22.6812C21.7801 25.0579 19.8579 26.9847 17.4869 26.9847C15.1158 26.9847 13.1937 25.0579 13.1937 22.6812C13.1937 20.3045 15.1158 18.3777 17.4869 18.3777C19.8579 18.3777 21.7801 20.3045 21.7801 22.6812Z" fill="#946AC6"/>
<path d="M32.4607 20.7919C32.4607 23.1686 30.5385 25.0953 28.1675 25.0953C25.7964 25.0953 23.8743 23.1686 23.8743 20.7919C23.8743 18.4151 25.7964 16.4884 28.1675 16.4884C30.5385 16.4884 32.4607 18.4151 32.4607 20.7919Z" fill="#946AC6"/>
<path d="M30.5758 31.498C30.5758 33.8748 28.6537 35.8015 26.2827 35.8015C23.9116 35.8015 21.9895 33.8748 21.9895 31.498C21.9895 29.1213 23.9116 27.1946 26.2827 27.1946C28.6537 27.1946 30.5758 29.1213 30.5758 31.498Z" fill="#946AC6"/>
<path d="M20.1047 33.3874C20.1047 35.7641 18.1825 37.6908 15.8115 37.6908C13.4404 37.6908 11.5183 35.7641 11.5183 33.3874C11.5183 31.0106 13.4404 29.0839 15.8115 29.0839C18.1825 29.0839 20.1047 31.0106 20.1047 33.3874Z" fill="#946AC6"/>
<path d="M8.58637 35.6965C8.58637 38.0733 6.66424 40 4.29318 40C1.92212 40 0 38.0733 0 35.6965C0 33.3198 1.92212 31.3931 4.29318 31.3931C6.66424 31.3931 8.58637 33.3198 8.58637 35.6965Z" fill="#946AC6"/>
<path d="M11.0994 24.5705C11.0994 26.9472 9.17733 28.874 6.80627 28.874C4.43521 28.874 2.51308 26.9472 2.51308 24.5705C2.51308 22.1938 4.43521 20.267 6.80627 20.267C9.17733 20.267 11.0994 22.1938 11.0994 24.5705Z" fill="#946AC6"/>
<path d="M12.9843 13.6544C12.9843 16.0311 11.0621 17.9579 8.69108 17.9579C6.32002 17.9579 4.39789 16.0311 4.39789 13.6544C4.39789 11.2777 6.32002 9.35095 8.69108 9.35095C11.0621 9.35095 12.9843 11.2777 12.9843 13.6544Z" fill="#946AC6"/>
<path d="M30.9948 9.14102C30.9948 9.14102 31.623 0.324174 28.272 0.00928755C24.9211 -0.305598 23.3503 7.46162 27.9579 11.87C32.5655 16.2785 40 14.914 40 11.5552C40 8.19636 30.9948 9.14102 30.9948 9.14102Z" fill="#0CD65C"/>
<path d="M69.56 34.35C66.83 34.35 64.52 33.8367 62.63 32.81C60.7633 31.7833 59.34 30.325 58.36 28.435C57.38 26.545 56.89 24.305 56.89 21.715C56.89 19.755 57.17 17.9933 57.73 16.43C58.3133 14.8667 59.1417 13.5367 60.215 12.44C61.3117 11.32 62.6417 10.4683 64.205 9.885C65.7683 9.27833 67.5417 8.975 69.525 8.975C70.8317 8.975 72.1383 9.13833 73.445 9.465C74.775 9.76833 76.0233 10.2933 77.19 11.04C77.5867 11.2967 77.8433 11.6117 77.96 11.985C78.1 12.3583 78.1233 12.7433 78.03 13.14C77.9367 13.5133 77.7617 13.84 77.505 14.12C77.2483 14.4 76.9217 14.575 76.525 14.645C76.1517 14.715 75.7317 14.6217 75.265 14.365C74.3783 13.8517 73.48 13.4783 72.57 13.245C71.66 13.0117 70.645 12.895 69.525 12.895C67.7983 12.895 66.34 13.245 65.15 13.945C63.96 14.6217 63.0617 15.6133 62.455 16.92C61.8717 18.2267 61.58 19.825 61.58 21.715C61.58 24.585 62.2683 26.7667 63.645 28.26C65.0217 29.7533 67.0633 30.5 69.77 30.5C70.7033 30.5 71.6483 30.4067 72.605 30.22C73.5617 30.0333 74.495 29.7767 75.405 29.45L74.53 31.445V23.99H70.68C70.0967 23.99 69.6417 23.8383 69.315 23.535C69.0117 23.2317 68.86 22.8233 68.86 22.31C68.86 21.7733 69.0117 21.365 69.315 21.085C69.6417 20.805 70.0967 20.665 70.68 20.665H76.455C77.0383 20.665 77.4817 20.8283 77.785 21.155C78.1117 21.4583 78.275 21.9017 78.275 22.485V30.99C78.275 31.5033 78.17 31.935 77.96 32.285C77.7733 32.635 77.4583 32.8917 77.015 33.055C75.9883 33.4283 74.81 33.7433 73.48 34C72.15 34.2333 70.8433 34.35 69.56 34.35ZM85.2865 34.28C84.5632 34.28 84.0032 34.0933 83.6065 33.72C83.2332 33.3233 83.0465 32.7633 83.0465 32.04V18.81C83.0465 18.0867 83.2332 17.5383 83.6065 17.165C83.9798 16.7917 84.5048 16.605 85.1815 16.605C85.8582 16.605 86.3832 16.7917 86.7565 17.165C87.1298 17.5383 87.3165 18.0867 87.3165 18.81V21.015H86.9665C87.2932 19.615 87.9348 18.5533 88.8915 17.83C89.8482 17.1067 91.1198 16.675 92.7065 16.535C93.1965 16.4883 93.5815 16.6167 93.8615 16.92C94.1648 17.2 94.3398 17.6433 94.3865 18.25C94.4332 18.8333 94.2932 19.3117 93.9665 19.685C93.6632 20.035 93.1965 20.245 92.5665 20.315L91.7965 20.385C90.3732 20.525 89.2998 20.9683 88.5765 21.715C87.8532 22.4383 87.4915 23.465 87.4915 24.795V32.04C87.4915 32.7633 87.3048 33.3233 86.9315 33.72C86.5582 34.0933 86.0098 34.28 85.2865 34.28ZM102.217 34.35C100.98 34.35 99.8716 34.1167 98.8916 33.65C97.935 33.16 97.1766 32.5067 96.6166 31.69C96.08 30.8733 95.8116 29.9517 95.8116 28.925C95.8116 27.665 96.1383 26.6733 96.7916 25.95C97.445 25.2033 98.5066 24.6667 99.9766 24.34C101.447 24.0133 103.418 23.85 105.892 23.85H107.642V26.37H105.927C104.48 26.37 103.325 26.44 102.462 26.58C101.598 26.72 100.98 26.965 100.607 27.315C100.257 27.6417 100.082 28.1083 100.082 28.715C100.082 29.485 100.35 30.115 100.887 30.605C101.423 31.095 102.17 31.34 103.127 31.34C103.897 31.34 104.573 31.165 105.157 30.815C105.763 30.4417 106.242 29.94 106.592 29.31C106.942 28.68 107.117 27.9567 107.117 27.14V23.115C107.117 21.9483 106.86 21.1083 106.347 20.595C105.833 20.0817 104.97 19.825 103.757 19.825C103.08 19.825 102.345 19.9067 101.552 20.07C100.782 20.2333 99.965 20.5133 99.1016 20.91C98.6583 21.12 98.2616 21.1783 97.9116 21.085C97.585 20.9917 97.3283 20.805 97.1416 20.525C96.955 20.2217 96.8616 19.895 96.8616 19.545C96.8616 19.195 96.955 18.8567 97.1416 18.53C97.3283 18.18 97.6433 17.9233 98.0866 17.76C99.16 17.3167 100.187 17.0017 101.167 16.815C102.17 16.6283 103.08 16.535 103.897 16.535C105.577 16.535 106.953 16.7917 108.027 17.305C109.123 17.8183 109.94 18.6 110.477 19.65C111.013 20.6767 111.282 22.0067 111.282 23.64V32.04C111.282 32.7633 111.107 33.3233 110.757 33.72C110.407 34.0933 109.905 34.28 109.252 34.28C108.598 34.28 108.085 34.0933 107.712 33.72C107.362 33.3233 107.187 32.7633 107.187 32.04V30.36H107.467C107.303 31.1767 106.977 31.8883 106.487 32.495C106.02 33.0783 105.425 33.5333 104.702 33.86C103.978 34.1867 103.15 34.35 102.217 34.35ZM117.892 40.58C117.192 40.58 116.656 40.3933 116.282 40.02C115.909 39.6467 115.722 39.0983 115.722 38.375V18.81C115.722 18.0867 115.909 17.5383 116.282 17.165C116.656 16.7917 117.181 16.605 117.857 16.605C118.557 16.605 119.094 16.7917 119.467 17.165C119.841 17.5383 120.027 18.0867 120.027 18.81V21.54L119.642 20.49C119.992 19.3 120.704 18.3433 121.777 17.62C122.874 16.8967 124.146 16.535 125.592 16.535C127.086 16.535 128.392 16.8967 129.512 17.62C130.656 18.3433 131.542 19.37 132.172 20.7C132.802 22.0067 133.117 23.5817 133.117 25.425C133.117 27.245 132.802 28.8317 132.172 30.185C131.542 31.515 130.667 32.5417 129.547 33.265C128.427 33.9883 127.109 34.35 125.592 34.35C124.169 34.35 122.921 34 121.847 33.3C120.774 32.5767 120.051 31.6433 119.677 30.5H120.097V38.375C120.097 39.0983 119.899 39.6467 119.502 40.02C119.129 40.3933 118.592 40.58 117.892 40.58ZM124.367 31.025C125.231 31.025 125.989 30.815 126.642 30.395C127.296 29.975 127.797 29.3567 128.147 28.54C128.521 27.7 128.707 26.6617 128.707 25.425C128.707 23.5583 128.311 22.17 127.517 21.26C126.724 20.3267 125.674 19.86 124.367 19.86C123.504 19.86 122.746 20.07 122.092 20.49C121.439 20.8867 120.926 21.505 120.552 22.345C120.202 23.1617 120.027 24.1883 120.027 25.425C120.027 27.2683 120.424 28.6683 121.217 29.625C122.011 30.5583 123.061 31.025 124.367 31.025ZM145.144 34.35C143.207 34.35 141.539 33.9883 140.139 33.265C138.739 32.5417 137.654 31.515 136.884 30.185C136.137 28.855 135.764 27.28 135.764 25.46C135.764 23.6867 136.125 22.135 136.849 20.805C137.595 19.475 138.61 18.4367 139.894 17.69C141.2 16.92 142.682 16.535 144.339 16.535C145.552 16.535 146.637 16.7333 147.594 17.13C148.574 17.5267 149.402 18.0983 150.079 18.845C150.779 19.5917 151.304 20.5017 151.654 21.575C152.027 22.625 152.214 23.815 152.214 25.145C152.214 25.565 152.062 25.8917 151.759 26.125C151.479 26.335 151.07 26.44 150.534 26.44H139.299V23.92H149.134L148.574 24.445C148.574 23.3717 148.41 22.4733 148.084 21.75C147.78 21.0267 147.325 20.4783 146.719 20.105C146.135 19.7083 145.4 19.51 144.514 19.51C143.534 19.51 142.694 19.7433 141.994 20.21C141.317 20.6533 140.792 21.295 140.419 22.135C140.069 22.9517 139.894 23.9317 139.894 25.075V25.32C139.894 27.2333 140.337 28.6683 141.224 29.625C142.134 30.5583 143.464 31.025 145.214 31.025C145.82 31.025 146.497 30.955 147.244 30.815C148.014 30.6517 148.737 30.3833 149.414 30.01C149.904 29.73 150.335 29.6133 150.709 29.66C151.082 29.6833 151.374 29.8117 151.584 30.045C151.817 30.2783 151.957 30.57 152.004 30.92C152.05 31.2467 151.98 31.585 151.794 31.935C151.63 32.285 151.339 32.5883 150.919 32.845C150.102 33.3583 149.157 33.7433 148.084 34C147.034 34.2333 146.054 34.35 145.144 34.35Z" fill="#2D2932"/>
</svg>
